<svg width="20" height="24" viewBox="0 0 20 24" fill="none" xmlns="http://www.w3.org/2000/svg">
<path d="M10 0C9.19021 0 8.43691 0.211538 7.74011 0.634615C7.04331 1.03846 6.48776 1.59615 6.07345 2.30769C5.67797 3.01923 5.48023 3.78846 5.48023 4.61538V5.53846H1.01695L0.960452 6.40385L0 24H20L19.0395 6.40385L18.9831 5.53846H14.5198V4.61538C14.5198 3.78846 14.3126 3.01923 13.8983 2.30769C13.5028 1.59615 12.9567 1.03846 12.2599 0.634615C11.5631 0.211538 10.8098 0 10 0ZM10 1.84615C10.7533 1.84615 11.3936 2.11538 11.9209 2.65385C12.4482 3.19231 12.7119 3.84615 12.7119 4.61538V5.53846H7.28814V4.61538C7.28814 3.84615 7.55179 3.19231 8.0791 2.65385C8.6064 2.11538 9.2467 1.84615 10 1.84615ZM2.71186 7.38462H5.48023V10.1538H7.28814V7.38462H12.7119V10.1538H14.5198V7.38462H17.2881L18.0791 22.1538H1.9209L2.71186 7.38462Z" fill="white"/>
</svg>
